<?xml version="1.0" encoding="UTF-8"?>
<svg width="50px" height="90px" viewBox="0 0 50 90" version="1.1" xmlns="http://www.w3.org/2000/svg" xmlns:xlink="http://www.w3.org/1999/xlink" xmlns:sketch="http://www.bohemiancoding.com/sketch/ns">
    <!-- Generator: Sketch 3.5.1 (25234) - http://www.bohemiancoding.com/sketch -->
    <title>Group</title>
    <desc>Created with Sketch.</desc>
    <defs></defs>
    <g id="Page-1" stroke="none" stroke-width="1" fill="none" fill-rule="evenodd" sketch:type="MSPage">
        <g id="noun_113854_cc" sketch:type="MSLayerGroup" transform="translate(1.000000, -1.000000)">
            <g id="Group" sketch:type="MSShapeGroup">
                <g transform="translate(0.000000, 0.637820)" id="Shape">
                    <path d="M31.672621,26.75008 C30.014213,26.75008 29.791089,26.87699 28.202634,27.12599 L27.510391,40.51232 C27.671654,40.49932 27.833183,40.49332 27.991751,40.48832 C30.011175,40.45332 31.344715,40.98122 31.916967,42.40632 C33.090165,45.3279 31.411037,49.3839 27.775891,51.6698 C24.140744,53.9556 19.8338,53.6472 18.15784,50.982 C16.916428,49.008 16.733591,46.8155 18.579603,44.6111 L14.481157,31.96277 C5.617915,37.47147 0.448337,46.7687 0.448337,57.9733 C0.448337,75.219 14.426843,89.202 31.672621,89.202 C48.918404,89.202 5.52592,72.7064 31.04456,57.9733 C56.687507,43.1683 48.918404,26.749 31.672621,26.749 L31.672621,26.75008 Z M21.989732,27.97409 C20.59494,28.37719 19.973077,28.79591 19.975875,28.93551 L22.662331,41.55172 C22.569231,40.43562 22.060112,31.67407 21.989732,27.97409 L21.989732,27.97409 Z M9.488758,41.66762 C11.698517,41.66762 13.490926,43.46 13.490926,45.6698 C13.490926,47.8796 11.698517,49.6719 9.488758,49.6719 C7.278993,49.6719 5.491169,47.8796 5.491169,45.6698 C5.491169,43.46 7.278993,41.66762 9.488758,41.66762 L9.488758,41.66762 Z M7.416613,55.1549 C9.626373,55.1549 11.418786,56.9428 11.418786,59.1524 C11.418786,61.3622 9.626373,63.1547 7.416613,63.1547 C5.206849,63.1547 3.41444,61.3622 3.41444,59.1524 C3.41444,56.9428 5.206849,55.1549 7.416613,55.1549 L7.416613,55.1549 Z M13.344226,68.0462 C15.553989,68.0462 17.3464,69.8386 17.3464,72.0484 C17.3464,74.2582 15.553989,76.0459 13.344226,76.0459 C11.134466,76.0459 9.342057,74.2582 9.342057,72.0484 C9.342057,69.8386 11.134466,68.0462 13.344226,68.0462 L13.344226,68.0462 Z" stroke="#C8815A" stroke-width="1.34964466" fill="#C8815A"></path>
                    <path d="M10.126565,3.2556 C10.072675,3.25659 10.021881,3.2646 9.970697,3.2785 C8.333018,3.71732 8.76629,10.65374 9.205103,12.29142 C9.643921,13.92909 11.326625,14.89865 12.964304,14.45983 C14.601983,14.02101 15.576119,12.3383 15.137303,10.70063 C14.712205,9.11413 11.797138,3.22319 10.126565,3.25558 L10.126565,3.2556 Z M13.936197,15.16585 C13.685149,15.15685 13.42759,15.18525 13.175185,15.25305 C11.829033,15.61376 10.966686,17.00804 11.396442,18.33376 L20.56064,46.6011 C20.72817,47.1179 21.236977,47.4385 21.761751,47.2978 C22.286523,47.1574 22.567312,46.6281 22.453993,46.0968 L16.255897,17.03176 C16.019719,15.92432 15.024052,15.2036 13.936197,15.16591 L13.936197,15.16585 Z" fill="#6D7993"></path>
                    <path d="M25.08873,0.84752 C23.393281,0.84752 22.020029,7.65848 22.020029,9.35393 C22.020029,11.04939 23.393281,12.42264 25.08873,12.42264 C26.784179,12.42264 28.160768,11.04939 28.160768,9.35393 C28.160768,7.65848 26.784179,0.84752 25.08873,0.84752 L25.08873,0.84752 Z M25.08873,13.24562 C23.695092,13.24562 22.501136,14.36944 22.573126,15.76124 L24.109143,45.4354 C24.137183,45.9779 24.545444,46.4183 25.08873,46.4183 C25.632012,46.4183 26.043583,45.9779 26.071649,45.4354 L27.604333,15.76124 C27.676333,14.36944 26.482372,13.24562 25.08873,13.24562 L25.08873,13.24562 Z" fill="#C0B283"></path>
                </g>
            </g>
        </g>
    </g>
</svg>